simulation
nRows=67
nColumns=15
endheader
time  TH_x TH_y TH_z SC_y  SC_z  SC_x  AC_y  AC_z  AC_x  GH_y  GH_z  GH_yy  EL_x  PS_y
0.750075  0.000000  0.000000  0.000000  -35.268135  8.481264  10.518356  46.158709  2.295117  0.710660  27.548021  28.489714  -31.004314  20.318499  132.464910
0.750374  0.000000  0.000000  0.000000  -35.268135  8.481264  13.851689  46.202731  -0.110299  -1.597544  27.548021  28.489714  -31.004314  20.318499  132.464910
0.750673  0.000000  0.000000  0.000000  -35.268135  8.481264  17.185023  46.149816  -2.515536  -3.906121  27.548021  28.489714  -31.004314  20.318499  132.464910
0.750973  0.000000  0.000000  0.000000  -43.065654  11.158726  -0.180160  45.751238  9.582994  9.029719  13.301567  39.942664  -24.072513  15.184162  121.169701
0.751272  0.000000  0.000000  0.000000  -43.065654  11.158726  -15.180160  42.891170  20.097146  20.117153  13.301567  39.942664  -24.072513  15.184162  121.169701
0.751571  0.000000  0.000000  0.000000  -43.065654  11.158726  -11.846826  43.724423  17.810353  17.552650  13.301567  39.942664  -24.072513  15.184162  121.169701
0.751871  0.000000  0.000000  0.000000  -43.065654  11.158726  -8.513493  44.440756  15.490988  15.053550  13.301567  39.942664  -24.072513  15.184162  121.169701
0.752170  0.000000  0.000000  0.000000  -43.065654  11.158726  -5.180160  45.045190  13.144196  12.610243  13.301567  39.942664  -24.072513  15.184162  121.169701
0.752469  0.000000  0.000000  0.000000  -43.065654  11.158726  -1.846826  45.542026  10.774773  10.213466  13.301567  39.942664  -24.072513  15.184162  121.169701
0.752769  0.000000  0.000000  0.000000  -43.065654  11.158726  1.486507  45.934833  8.387228  7.854272  13.301567  39.942664  -24.072513  15.184162  121.169701
0.753068  0.000000  0.000000  0.000000  -43.065654  11.158726  4.819840  46.226456  5.985838  5.523981  13.301567  39.942664  -24.072513  15.184162  121.169701
0.753367  0.000000  0.000000  0.000000  -43.065654  11.158726  8.153174  46.419016  3.574706  3.214130  13.301567  39.942664  -24.072513  15.184162  121.169701
0.753667  0.000000  0.000000  0.000000  -43.065654  11.158726  11.486507  46.513916  1.157811  0.916411  13.301567  39.942664  -24.072513  15.184162  121.169701
0.753966  0.000000  0.000000  0.000000  -43.065654  11.158726  14.819840  46.511851  -1.260943  -1.377391  13.301567  39.942664  -24.072513  15.184162  121.169701
0.754265  0.000000  0.000000  0.000000  -39.794323  3.714004  -19.105666  56.462710  18.806609  21.508415  12.610606  26.845644  -32.299396  28.465659  126.756955
0.754565  0.000000  0.000000  0.000000  -39.794323  3.714004  -34.105666  52.383502  31.037918  31.115224  12.610606  26.845644  -32.299396  28.465659  126.756955
0.754864  0.000000  0.000000  0.000000  -39.794323  3.714004  -30.772332  53.529572  28.376917  28.803461  12.610606  26.845644  -32.299396  28.465659  126.756955
0.755163  0.000000  0.000000  0.000000  -39.794323  3.714004  -27.438999  54.528673  25.678833  26.605673  12.610606  26.845644  -32.299396  28.465659  126.756955
0.755462  0.000000  0.000000  0.000000  -39.794323  3.714004  -24.105666  55.393592  22.949292  24.505810  12.610606  26.845644  -32.299396  28.465659  126.756955
0.755762  0.000000  0.000000  0.000000  -39.794323  3.714004  -20.772332  56.135212  20.193218  22.489428  12.610606  26.845644  -32.299396  28.465659  126.756955
0.756061  0.000000  0.000000  0.000000  -39.794323  3.714004  -17.438999  56.762697  17.414958  20.543471  12.610606  26.845644  -32.299396  28.465659  126.756955
0.756360  0.000000  0.000000  0.000000  -39.794323  3.714004  -14.105666  57.283668  14.618392  18.656045  12.610606  26.845644  -32.299396  28.465659  126.756955
0.756660  0.000000  0.000000  0.000000  -39.794323  3.714004  -10.772332  57.704351  11.807027  16.816225  12.610606  26.845644  -32.299396  28.465659  126.756955
0.756959  0.000000  0.000000  0.000000  -39.794323  3.714004  -7.438999  58.029699  8.984070  15.013864  12.610606  26.845644  -32.299396  28.465659  126.756955
0.757258  0.000000  0.000000  0.000000  -39.794323  3.714004  -4.105666  58.263496  6.152505  13.239425  12.610606  26.845644  -32.299396  28.465659  126.756955
0.757558  0.000000  0.000000  0.000000  -27.628048  -7.538915  6.898983  53.839393  2.482826  -10.254637  16.264401  40.711278  -29.947774  16.224767  122.073297
0.757857  0.000000  0.000000  0.000000  -27.628048  -7.538915  -8.101017  52.487914  14.513577  -1.178289  16.264401  40.711278  -29.947774  16.224767  122.073297
0.758156  0.000000  0.000000  0.000000  -27.628048  -7.538915  -4.767684  52.961085  11.860838  -3.251616  16.264401  40.711278  -29.947774  16.224767  122.073297
0.758456  0.000000  0.000000  0.000000  -27.628048  -7.538915  -1.434350  53.332701  9.193301  -5.284879  16.264401  40.711278  -29.947774  16.224767  122.073297
0.758755  0.000000  0.000000  0.000000  -27.628048  -7.538915  1.898983  53.606478  6.514556  -7.287652  16.264401  40.711278  -29.947774  16.224767  122.073297
0.759054  0.000000  0.000000  0.000000  -27.628048  -7.538915  5.232316  53.785141  3.828003  -9.269111  16.264401  40.711278  -29.947774  16.224767  122.073297
0.759353  0.000000  0.000000  0.000000  -27.628048  -7.538915  8.565650  53.870459  1.136916  -11.238158  16.264401  40.711278  -29.947774  16.224767  122.073297
0.759653  0.000000  0.000000  0.000000  -27.628048  -7.538915  11.898983  53.863277  -1.555512  -13.203535  16.264401  40.711278  -29.947774  16.224767  122.073297
0.759952  0.000000  0.000000  0.000000  -27.628048  -7.538915  15.232316  53.763523  -4.246105  -15.173936  16.264401  40.711278  -29.947774  16.224767  122.073297
0.760251  0.000000  0.000000  0.000000  -27.628048  -7.538915  18.565650  53.570212  -6.931661  -17.158119  16.264401  40.711278  -29.947774  16.224767  122.073297
0.760551  0.000000  0.000000  0.000000  -27.628048  -7.538915  21.898983  53.281426  -9.608891  -19.165021  16.264401  40.711278  -29.947774  16.224767  122.073297
0.760850  0.000000  0.000000  0.000000  -19.662638  -4.904831  24.961708  64.829698  2.111083  -17.331249  34.415399  29.212072  -26.386296  26.832799  127.529671
0.761149  0.000000  0.000000  0.000000  -19.662638  -4.904831  9.961708  63.808499  15.644417  -10.767232  34.415399  29.212072  -26.386296  26.832799  127.529671
0.761449  0.000000  0.000000  0.000000  -19.662638  -4.904831  13.295041  64.176996  12.648444  -12.274390  34.415399  29.212072  -26.386296  26.832799  127.529671
0.761748  0.000000  0.000000  0.000000  -19.662638  -4.904831  16.628374  64.461692  9.644198  -13.746512  34.415399  29.212072  -26.386296  26.832799  127.529671
0.762047  0.000000  0.000000  0.000000  -19.662638  -4.904831  19.961708  64.666501  6.633815  -15.192584  34.415399  29.212072  -26.386296  26.832799  127.529671
0.762347  0.000000  0.000000  0.000000  -19.662638  -4.904831  23.295041  64.794195  3.619296  -16.621064  34.415399  29.212072  -26.386296  26.832799  127.529671
0.762646  0.000000  0.000000  0.000000  -19.662638  -4.904831  26.628374  64.846483  0.602548  -18.040057  34.415399  29.212072  -26.386296  26.832799  127.529671
0.762945  0.000000  0.000000  0.000000  -19.662638  -4.904831  29.961708  64.824062  -2.414570  -19.457477  34.415399  29.212072  -26.386296  26.832799  127.529671
0.763245  0.000000  0.000000  0.000000  -19.662638  -4.904831  33.295041  64.726633  -5.430204  -20.881210  34.415399  29.212072  -26.386296  26.832799  127.529671
0.763544  0.000000  0.000000  0.000000  -19.662638  -4.904831  36.628374  64.552895  -8.442473  -22.319265  34.415399  29.212072  -26.386296  26.832799  127.529671
0.763843  0.000000  0.000000  0.000000  -19.662638  -4.904831  39.961708  64.300509  -11.449417  -23.779938  34.415399  29.212072  -26.386296  26.832799  127.529671
0.764142  0.000000  0.000000  0.000000  -32.110620  -1.639470  10.543673  58.232020  3.648266  -10.264644  25.678537  31.205775  -21.899988  19.539598  126.269225
0.764442  0.000000  0.000000  0.000000  -39.173086  -0.900694  -8.510018  58.080538  12.912846  8.790957  11.635260  34.818285  -14.448248  29.375371  132.204467
0.764741  0.000000  0.000000  0.000000  -39.173086  -0.900694  -23.510018  55.192717  25.466429  17.508973  11.635260  34.818285  -14.448248  29.375371  132.204467
0.765040  0.000000  0.000000  0.000000  -39.173086  -0.900694  -20.176685  56.034714  22.715278  15.446970  11.635260  34.818285  -14.448248  29.375371  132.204467
0.765340  0.000000  0.000000  0.000000  -39.173086  -0.900694  -16.843351  56.755214  19.938741  13.466643  11.635260  34.818285  -14.448248  29.375371  132.204467
0.765639  0.000000  0.000000  0.000000  -39.173086  -0.900694  -13.510018  57.363269  17.141024  11.555035  11.635260  34.818285  -14.448248  29.375371  132.204467
0.765938  0.000000  0.000000  0.000000  -39.173086  -0.900694  -10.176685  57.866380  14.325881  9.700360  11.635260  34.818285  -14.448248  29.375371  132.204467
0.766238  0.000000  0.000000  0.000000  -39.173086  -0.900694  -6.843351  58.270645  11.496703  7.891794  11.635260  34.818285  -14.448248  29.375371  132.204467
0.766537  0.000000  0.000000  0.000000  -39.173086  -0.900694  -3.510018  58.580892  8.656598  6.119286  11.635260  34.818285  -14.448248  29.375371  132.204467
0.766836  0.000000  0.000000  0.000000  -39.173086  -0.900694  -0.176685  58.800780  5.808457  4.373386  11.635260  34.818285  -14.448248  29.375371  132.204467
0.767136  0.000000  0.000000  0.000000  -39.173086  -0.900694  3.156649  58.932875  2.955014  2.645082  11.635260  34.818285  -14.448248  29.375371  132.204467
0.767435  0.000000  0.000000  0.000000  -39.173086  -0.900694  6.489982  58.978711  0.098900  0.925652  11.635260  34.818285  -14.448248  29.375371  132.204467
0.767734  0.000000  0.000000  0.000000  -41.232909  -2.929129  -8.263784  48.540019  7.405025  3.075100  28.042503  36.063369  -16.445161  20.091756  123.430624
0.768034  0.000000  0.000000  0.000000  -41.232909  -2.929129  -23.263784  46.192396  18.471751  13.483972  28.042503  36.063369  -16.445161  20.091756  123.430624
0.768333  0.000000  0.000000  0.000000  -41.232909  -2.929129  -19.930451  46.904940  16.051519  11.083551  28.042503  36.063369  -16.445161  20.091756  123.430624
0.768632  0.000000  0.000000  0.000000  -41.232909  -2.929129  -16.597117  47.504644  13.605211  8.741102  28.042503  36.063369  -16.445161  20.091756  123.430624
0.768931  0.000000  0.000000  0.000000  -41.232909  -2.929129  -13.263784  47.996369  11.137460  6.446793  28.042503  36.063369  -16.445161  20.091756  123.430624
0.769231  0.000000  0.000000  0.000000  -41.232909  -2.929129  -9.930451  48.384116  8.652593  4.191211  28.042503  36.063369  -16.445161  20.091756  123.430624
0.769530  0.000000  0.000000  0.000000  -41.232909  -2.929129  -6.597117  48.671049  6.154694  1.965295  28.042503  36.063369  -16.445161  20.091756  123.430624
0.769829  0.000000  0.000000  0.000000  -41.232909  -2.929129  -3.263784  48.859510  3.647665  -0.239745  28.042503  36.063369  -16.445161  20.091756  123.430624
